<svg xmlns="http://www.w3.org/2000/svg" width="120" height="120" viewBox="0 0 100 100">
  <defs>
    <radialGradient id="sunGrad" cx="50%" cy="50%" r="50%">
      <stop offset="0%" stop-color="#FFF176"/>
      <stop offset="100%" stop-color="#FF8F00"/>
    </radialGradient>
    <linearGradient id="rayGrad" x1="0%" y1="0%" x2="0%" y2="100%">
      <stop offset="0%" stop-color="#FFCA28"/>
      <stop offset="100%" stop-color="#FF6F00"/>
    </linearGradient>
  </defs>
  <g fill="url(#rayGrad)">
    <polygon points="50,5 45,25 55,25"/>
    <polygon points="50,95 45,75 55,75"/>
    <polygon points="5,50 25,45 25,55"/>
    <polygon points="95,50 75,45 75,55"/>
    <polygon points="18,18 30,28 28,30"/>
    <polygon points="82,82 70,72 72,70"/>
    <polygon points="82,18 72,30 70,28"/>
    <polygon points="18,82 28,70 30,72"/>
  </g>
  <circle cx="50" cy="50" r="22" fill="url(#sunGrad)"/>
</svg>
